<svg id="art_icons" data-name="art icons" xmlns="http://www.w3.org/2000/svg" viewBox="0 0 48 48"><defs><style>.cls-1,.cls-2{fill:#2a75d1;}.cls-1{opacity:0.24;}</style></defs><title>icon-honest-blue-drive-productivity</title><rect class="cls-1" x="1" y="36" width="10" height="11" rx="1.06"/><rect class="cls-1" x="19" y="30" width="10" height="17" rx="1.06"/><rect class="cls-1" x="37" y="24" width="10" height="23" rx="1.06"/><path class="cls-2" d="M9.5,48h-7A2.5,2.5,0,0,1,0,45.5v-19A2.5,2.5,0,0,1,2.5,24h7A2.5,2.5,0,0,1,12,26.5v19A2.5,2.5,0,0,1,9.5,48Zm-7-22a.5.5,0,0,0-.5.5v19a.5.5,0,0,0,.5.5h7a.5.5,0,0,0,.5-.5v-19a.5.5,0,0,0-.5-.5Z"/><path class="cls-2" d="M27.5,48h-7A2.5,2.5,0,0,1,18,45.5v-31A2.5,2.5,0,0,1,20.5,12h7A2.5,2.5,0,0,1,30,14.5v31A2.5,2.5,0,0,1,27.5,48Zm-7-34a.5.5,0,0,0-.5.5v31a.5.5,0,0,0,.5.5h7a.5.5,0,0,0,.5-.5v-31a.5.5,0,0,0-.5-.5Z"/><path class="cls-2" d="M45.5,48h-7A2.5,2.5,0,0,1,36,45.5V2.5A2.5,2.5,0,0,1,38.5,0h7A2.5,2.5,0,0,1,48,2.5v43A2.5,2.5,0,0,1,45.5,48Zm-7-46a.5.5,0,0,0-.5.5v43a.5.5,0,0,0,.5.5h7a.5.5,0,0,0,.5-.5V2.5a.5.5,0,0,0-.5-.5Z"/></svg>